<svg viewBox="0 0 32 32" class="icon" aria-hidden="true">
                <g>
                    <path class="path1" d="M13.582 23.962v-11.203l-4.272 4.272v-3.911l6.108-6.101 6.101 6.101v3.911l-4.272-4.272v11.203h-3.665z"></path>
                    <path class="path2" d="M15.418 30.937c-0.004 0-0.008 0-0.013 0-8.27 0-14.975-6.704-14.975-14.975s6.704-14.975 14.975-14.975c8.27 0 14.975 6.704 14.975 14.975-0.011 8.261-6.702 14.957-14.96 14.975zM15.418 3.519c-0.004 0-0.008 0-0.013 0-6.872 0-12.443 5.571-12.443 12.443s5.571 12.443 12.443 12.443c6.872 0 12.443-5.571 12.443-12.443-0.007-6.865-5.567-12.429-12.429-12.443z"></path>
                </g>
            </svg>